  <svg viewBox="0 0 1520 720" fill="none" xmlns="http://www.w3.org/2000/svg">
    <g clip-path="url(#clip0_2442_70543)">
    <path d="M-79.4805 627.261C-79.4805 627.261 914.958 581.473 1013.5 480.059C1112.04 378.646 1157.77 482.436 1213.48 465.798C1269.19 449.16 1325.13 214.526 1347.66 174.523C1368.59 223.416 1408.12 84.7054 1412.74 84.7054C1432.08 138.043 1442.55 149.6 1453.7 157.601C1459.39 175.38 1459.39 186.048 1477.59 190.493C1488.65 200.617 1489.47 240.243 1522.03 210.057C1550.31 229.941 1535.66 265.991 1559.78 252.657C1583.9 239.322 1601.84 244.755 1601.84 244.755V718.539H-79.4805V627.261Z" fill="#C2EAF2" fill-opacity="0.3"/>
    <path d="M-82.4835 544.016C119.42 544.016 139.892 615.407 306.691 587.181C384.276 574.052 395.978 498.704 493.114 474.278C583.382 504.132 766.543 331.521 786.485 331.521C869.885 364.089 915.019 371.146 963.096 376.031C987.625 386.887 987.625 393.401 1066.12 396.115C1113.8 402.297 1122.05 432.482 1252.54 386.344C1374.48 398.485 1357.53 440.624 1461.53 432.482C1565.54 424.34 1601.84 398.286 1601.84 398.286V718.539H-82.4844L-82.4835 544.016Z" fill="#008000" fill-opacity="0.04"/>
    <path d="M-80.082 546.863C-80.082 546.863 320.118 592.211 503.993 498.742C687.869 405.273 773.197 500.933 877.153 485.598C981.108 470.263 1060.75 339.978 1102.79 303.109C1141.85 348.172 1240.35 134.361 1248.98 134.361C1285.07 183.52 1304.61 194.171 1325.41 201.545C1336.03 217.932 1336.03 227.764 1370 231.86C1390.63 241.192 1394.2 333.489 1450.67 263.847C1503.44 282.172 1496.11 345.779 1541.12 333.489C1586.13 321.199 1601.84 281.872 1601.84 281.872V718.539H-80.082V546.863Z" fill="#008000" fill-opacity="0.04"/>
    <path d="M-81.8848 573.473C-81.8848 573.473 85.0128 499.806 211.633 499.806C338.253 499.806 592.381 586.997 707.554 550.996C761.126 534.25 769.206 438.146 836.277 406.991C898.606 445.07 1025.08 224.909 1038.85 224.909C1096.43 266.449 1127.6 275.449 1160.79 281.68C1177.73 295.526 1177.73 303.834 1231.93 307.296C1264.85 315.181 1270.55 353.682 1360.65 294.834C1444.85 310.319 1433.14 364.067 1504.96 353.682C1576.77 343.297 1601.84 310.065 1601.84 310.065V718.54H-81.8848V573.473Z" fill="#006A80" fill-opacity="0.04"/>
    <path d="M-80.6836 676.149C-80.6836 676.149 83.9632 627.952 226.977 627.952C369.992 627.952 281.659 665.218 443.302 659.918C604.944 654.618 713.106 551.6 840.497 550.606C967.888 549.613 1076.05 627.952 1173.7 627.952C1271.34 627.952 1334.44 571.475 1392.12 572.8C1449.81 574.124 1601.84 654.618 1601.84 654.618V718.548H-80.6836V676.149Z" fill="#00402B" fill-opacity="0.4"/>
    <path d="M-81.8848 651.814C-81.8848 651.814 409.881 575.958 522.188 575.958C634.494 575.958 565.128 634.61 692.063 626.268C818.997 617.927 903.935 455.786 1003.97 454.222C1104.01 452.658 1188.95 575.958 1265.63 575.958C1342.31 575.958 1391.85 487.067 1437.15 489.152C1482.45 491.237 1601.84 617.927 1601.84 617.927V718.548H-81.8848V651.814Z" fill="#194019" fill-opacity="0.2"/>
    <path d="M-83.0859 675.596C-83.0859 675.596 468.738 624.287 645.465 542.116C822.193 459.945 913.835 576.167 996.131 561.542C1078.43 546.916 1247.78 368.298 1261.61 375.548C1275.43 382.799 1288.06 371.646 1304.29 382.799C1320.52 393.952 1357.91 444.146 1368.61 450.281C1403.52 470.302 1405.74 471.7 1435.99 476.836C1469.77 482.572 1477.88 445.436 1486.47 445.436C1513.52 445.436 1601.84 375.577 1601.84 375.577V718.54H-83.0859V675.596Z" fill="#006A80" fill-opacity="0.2"/>
    <path d="M1648.91 716.54H-83.4902V661.155C-83.3458 661.031 -83.1782 660.887 -82.9876 660.725C-82.2004 660.055 -81.0217 659.068 -79.4663 657.809C-76.3554 655.29 -71.7382 651.684 -65.7333 647.354C-53.7224 638.692 -36.1667 627.134 -14.0155 615.574C30.2973 592.45 92.9286 569.357 166.317 569.357C233.308 569.357 329.581 584.968 430.531 601.338C440.491 602.953 450.496 604.575 460.524 606.19C572.03 624.156 686.21 641.262 769.874 637.608C854.035 633.932 913.219 587.383 967.503 542.029C970.175 539.796 972.835 537.567 975.484 535.346C999.808 514.959 1023.3 495.269 1047.94 480.103C1075.22 463.311 1103.77 452.155 1136.16 451.818C1200.95 451.145 1235.67 486.551 1267.03 522.698C1269.21 525.212 1271.37 527.733 1273.53 530.247C1302.28 563.703 1330.02 595.982 1377.91 595.982C1429.31 595.982 1462.53 561.682 1490.06 528.332C1493.53 524.12 1496.92 519.929 1500.23 515.821C1510.13 503.558 1519.43 492.032 1528.9 482.87C1541.53 470.658 1554.06 463.07 1568.13 463.5C1574.8 463.704 1581.2 467.461 1587.35 474.395C1593.49 481.325 1599.19 491.231 1604.43 503.232C1614.91 527.223 1623.38 559.135 1630.02 591.11C1636.65 623.06 1641.43 654.966 1644.54 678.892C1646.1 690.853 1647.25 700.815 1648 707.785C1648.38 711.27 1648.66 714.007 1648.84 715.871C1648.87 716.108 1648.89 716.331 1648.91 716.54Z" fill="#194019" fill-opacity="0.5" stroke="white" stroke-width="4"/>
    <path d="M-81.8848 687.201C-81.8848 687.201 410.583 651.577 523.05 651.577C635.517 651.577 566.052 679.121 693.168 675.204C820.283 671.286 905.342 595.143 1005.52 594.408C1105.7 593.674 1190.76 651.577 1267.55 651.577C1344.34 651.577 1393.96 609.833 1439.32 610.812C1484.69 611.791 1604.24 671.286 1604.24 671.286V718.539H-81.8848V687.201Z" fill="#28B1CC" fill-opacity="0.8"/>
    <path d="M-81.8848 700.104C-81.8848 700.104 410.584 679.149 523.05 679.149C635.517 679.149 566.052 695.352 693.168 693.047C820.283 690.743 905.342 645.953 1005.52 645.521C1105.7 645.089 1190.76 679.149 1267.55 679.149C1344.34 679.149 1393.96 654.594 1439.32 655.17C1484.69 655.746 1604.24 690.743 1604.24 690.743V718.539H-81.8848V700.104Z" fill="#1B2426" fill-opacity="0.9"/>
    <path d="M-82 716.728C-82 716.728 410.431 714.146 522.889 714.146C635.348 714.146 565.888 716.143 692.994 715.859C820.1 715.575 905.153 710.054 1005.33 710.001C1105.5 709.948 1190.55 714.146 1267.33 714.146C1344.12 714.146 1393.73 711.119 1439.09 711.19C1484.45 711.261 1604 715.575 1604 715.575V719H-82V716.728Z" fill="#194019"/>
    <path d="M-85.4902 662.012L-86.8113 660.51L-87.4902 661.108V662.012V719.539V721.539H-85.4902H1651.11H1653.3L1653.1 719.357L1651.11 719.539C1653.1 719.357 1653.1 719.356 1653.1 719.354L1653.1 719.344L1653.1 719.309L1653.09 719.168C1653.07 719.044 1653.06 718.86 1653.03 718.617C1652.99 718.132 1652.92 717.412 1652.83 716.475C1652.64 714.599 1652.36 711.851 1651.98 708.353C1651.22 701.358 1650.07 691.366 1648.51 679.371C1645.39 655.386 1640.59 623.371 1633.94 591.288C1627.28 559.229 1618.75 526.994 1608.1 502.621C1602.77 490.44 1596.88 480.109 1590.34 472.735C1583.81 465.365 1576.46 460.75 1568.25 460.502C1552.54 460.027 1538.99 468.66 1526.11 481.27C1516.45 490.731 1506.93 502.677 1496.99 515.142C1493.7 519.269 1490.37 523.453 1486.96 527.623C1459.43 561.38 1427.28 594.621 1377.91 594.621C1331.93 594.621 1305.13 563.268 1275.82 528.98C1273.72 526.512 1271.59 524.03 1269.45 521.543C1237.69 484.685 1201.62 447.404 1134.92 448.088C1101.56 448.43 1072.37 460.05 1044.82 477.263C1020.03 492.744 996.454 512.823 972.326 533.372C969.667 535.637 967.001 537.907 964.325 540.178C910.313 586.027 852.366 632.139 769.7 635.702C686.523 639.287 572.771 622.491 461.156 604.745C451.105 603.147 441.071 601.541 431.079 599.942C330.257 583.807 233.652 568.346 166.317 568.346C92.1001 568.346 28.8311 591.388 -15.8564 614.401C-38.2052 625.91 -55.9241 637.421 -68.0628 646.06C-74.1328 650.38 -78.8091 653.983 -81.9731 656.511C-83.5551 657.775 -84.7592 658.77 -85.5705 659.451C-85.9761 659.792 -86.2836 660.054 -86.491 660.233C-86.5947 660.322 -86.6734 660.39 -86.7268 660.437L-86.7881 660.49L-86.8044 660.504L-86.809 660.508C-86.8104 660.51 -86.8113 660.51 -85.4902 662.012Z" stroke="#CE85F2" stroke-width="4"/>
    </g>
    <defs>
    <clipPath id="clip0_2442_70543">
    <rect width="1520" height="720" fill="white"/>
    </clipPath>
    </defs>
    </svg>